<?xml version="1.0" encoding="UTF-8"?>
<svg version="1.1" xmlns="http://www.w3.org/2000/svg" width="200" height="100">
<path d="M0 0 C3.44035837 0.03552458 6.88066729 0.02808467 10.32117176 0.02655697 C16.09089354 0.03028472 21.85976573 0.06476918 27.62921619 0.11963558 C34.27840057 0.18263848 40.92665879 0.20362286 47.57612014 0.20069337 C54.69286417 0.19798265 61.80925651 0.22577996 68.92589378 0.26247978 C70.96174767 0.27096213 72.99754399 0.2738385 75.03341389 0.27543545 C78.83843587 0.28413873 82.64231286 0.31921403 86.44708729 0.36182308 C87.56314854 0.36001034 88.67920979 0.35819759 89.82909107 0.35632992 C97.63471617 0.4837159 104.06832783 1.79905536 110.11212635 6.97803402 C110.91650135 7.98156918 110.91650135 7.98156918 111.73712635 9.00537777 C112.29400135 9.67697933 112.85087635 10.34858089 113.42462635 11.04053402 C116.38541717 15.33191834 116.18524298 19.93603625 115.73712635 24.94287777 C113.6993737 31.31085479 108.5433367 35.40616701 103.11285877 39.0253973 C99.67488891 40.35310162 96.3202258 40.18849071 92.69025135 40.13819027 C91.91904957 40.13536037 91.14784779 40.13253048 90.35327625 40.12961483 C87.89773303 40.1184479 85.44255875 40.09335006 82.98712635 40.06787777 C81.31916288 40.05784345 79.65119367 40.04871838 77.9832201 40.04053402 C73.90093344 40.02022414 69.81944135 39.98106991 65.73712635 39.94287777 C65.73712635 32.02287777 65.73712635 24.10287777 65.73712635 15.94287777 C69.69712635 15.94287777 73.65712635 15.94287777 77.73712635 15.94287777 C77.73712635 20.56287777 77.73712635 25.18287777 77.73712635 29.94287777 C80.25946954 29.8550651 82.77864285 29.7480977 85.29962635 29.63037777 C86.00409901 29.60781918 86.70857166 29.58526058 87.43439198 29.56201839 C92.4925444 29.30561435 96.23004246 28.29212999 100.73712635 25.94287777 C102.15754456 23.10204136 102.05164907 21.08810499 101.73712635 17.94287777 C99.34939021 14.78765502 97.56713431 13.6046104 93.73712635 12.94287777 C91.09490719 12.82866677 88.47783205 12.76512803 85.83502674 12.75000668 C84.6465086 12.73774044 84.6465086 12.73774044 83.43397999 12.7252264 C80.81758844 12.70045632 78.20125069 12.68388142 75.5847826 12.66944027 C74.69002153 12.66411659 73.79526047 12.65879292 72.87338543 12.65330791 C68.14088136 12.62661778 63.40840335 12.60722633 58.67584705 12.59278011 C54.75992042 12.57942046 50.84451235 12.55152503 46.92877674 12.51074886 C42.19733681 12.46148276 37.46636852 12.43666733 32.73468304 12.42955303 C30.93293003 12.42283548 29.13118776 12.40760025 27.32958126 12.38366222 C24.80870085 12.35206739 22.28964663 12.35196421 19.76862049 12.35938168 C18.65487049 12.33477367 18.65487049 12.33477367 17.51862049 12.30966854 C13.54573193 12.35749177 11.92970218 12.78021336 8.85095692 15.38075924 C7.80461079 16.64900791 7.80461079 16.64900791 6.73712635 17.94287777 C5.57440578 18.93277599 4.39292222 19.90146602 3.1863451 20.83740902 C2.63035633 21.27158138 2.07436756 21.70575375 1.50153065 22.15308285 C0.81615223 22.68184017 0.13077381 23.2105975 -0.57537365 23.75537777 C-2.78224865 25.46725277 -4.98912365 27.17912777 -7.26287365 28.94287777 C5.60712635 29.43787777 5.60712635 29.43787777 18.73712635 29.94287777 C14.73712635 36.94287777 14.73712635 36.94287777 12.73712635 39.94287777 C10.91559315 40.31709957 10.91559315 40.31709957 8.6863451 40.31519222 C7.85207996 40.32142101 7.01781483 40.3276498 6.15826893 40.33406734 C5.25616688 40.3248576 4.35406483 40.31564785 3.42462635 40.30615902 C2.49996571 40.30665752 1.57530506 40.30715603 0.6226244 40.30766964 C-1.33434731 40.30532684 -3.29132189 40.29558623 -5.24822521 40.27905941 C-8.25077675 40.2554728 -11.25244059 40.25849607 -14.25506115 40.26514339 C-16.15350397 40.25956669 -18.05194303 40.25245686 -19.95037365 40.24365902 C-20.8524757 40.24457043 -21.75457775 40.24548183 -22.68401623 40.24642086 C-23.51828136 40.23688885 -24.3525465 40.22735683 -25.2120924 40.21753597 C-25.94774426 40.21292858 -26.68339611 40.20832119 -27.44134045 40.20357418 C-29.26287365 39.94287777 -29.26287365 39.94287777 -31.26287365 37.94287777 C-31.6808424 35.61084652 -31.6808424 35.61084652 -31.26287365 32.94287777 C-29.3136549 30.61865902 -29.3136549 30.61865902 -26.57537365 28.25537777 C-25.70525646 27.48838558 -24.83513927 26.72139339 -23.9386549 25.93115902 C-18.47163187 21.48666102 -12.84746533 17.23871752 -7.26287365 12.94287777 C-18.81287365 12.61287777 -30.36287365 12.28287777 -42.26287365 11.94287777 C-29.53777337 -0.78222251 -17.33523445 -0.21711205 0 0 Z " fill="#FE7805" transform="translate(76.26287364959717,23.057122230529785)"/>
<path d="M0 0 C-2 1 -2 1 -5.60546875 -0.109375 C-7.13427647 -0.65214397 -8.66152695 -1.19931185 -10.1875 -1.75 C-23.46644496 -6.36581133 -37.03021258 -9.11741927 -51.12890625 -9.203125 C-51.88106918 -9.20882507 -52.63323212 -9.21452515 -53.40818787 -9.22039795 C-54.99224471 -9.22978192 -56.5763205 -9.23635539 -58.16040039 -9.24023438 C-60.53242924 -9.24987775 -62.90356652 -9.28093814 -65.27539062 -9.3125 C-83.93119994 -9.44243103 -104.14251873 -6.17180058 -119 6 C-123.66490348 10.61961316 -125.38833733 14.88909723 -125.75 21.4375 C-125.34540721 29.3178642 -122.34997073 34.66203633 -116.8203125 40.171875 C-114.92705809 41.85626504 -113.01065446 43.45883846 -111 45 C-111.99 45.495 -111.99 45.495 -113 46 C-122.9543551 41.40800615 -131.45552928 35.13766546 -136 25 C-137.57730366 18.88658858 -137.23824137 14.56572736 -134 9 C-124.37997722 -4.64391042 -107.76935284 -9.53387595 -92.02514648 -12.4831543 C-62.09546788 -17.36944604 -26.83352909 -15.31089601 0 0 Z " fill="#BDBDC7" transform="translate(141,17)"/>
<path d="M0 0 C3.96 0 7.92 0 12 0 C12 0.99 12 1.98 12 3 C22.23 3 32.46 3 43 3 C42.01 4.65 41.02 6.3 40 8 C39.56196045 8.75506836 39.1239209 9.51013672 38.67260742 10.28808594 C37 12 37 12 34.36450195 12.45410156 C32.81702271 12.42268066 32.81702271 12.42268066 31.23828125 12.390625 C30.12001953 12.37773438 29.00175781 12.36484375 27.84960938 12.3515625 C26.68236328 12.31804688 25.51511719 12.28453125 24.3125 12.25 C23.13365234 12.23195313 21.95480469 12.21390625 20.74023438 12.1953125 C17.82601074 12.14811859 14.91340969 12.08229077 12 12 C12 13.65 12 15.3 12 17 C22.89 17 33.78 17 45 17 C44.34 18.32 43.68 19.64 43 21 C42.22414551 22.59062256 42.22414551 22.59062256 41.43261719 24.21337891 C38.83302426 27.1912747 38.61880354 27.41109743 34.96582031 27.68115234 C33.33627971 27.68020618 31.70653945 27.64651693 30.078125 27.5859375 C28.78814606 27.57320297 28.78814606 27.57320297 27.47210693 27.56021118 C24.73012038 27.52667054 21.99109462 27.4513951 19.25 27.375 C17.38936545 27.34490102 15.52868471 27.31752509 13.66796875 27.29296875 C9.10992627 27.23197799 4.55826843 27.11459334 0 27 C0 18.09 0 9.18 0 0 Z " fill="#FE7601" transform="translate(96,36)"/>
<path d="M0 0 C0 0.33 0 0.66 0 1 C-1.97931664 0.85621657 -3.95844584 0.70985226 -5.9375 0.5625 C-7.03964844 0.48128906 -8.14179687 0.40007813 -9.27734375 0.31640625 C-11.90546434 0.09302979 -14.48496131 -0.18715943 -17.09765625 -0.51953125 C-41.21401203 -3.2376939 -69.04821226 -2.01334638 -89.94921875 11.66796875 C-92 13 -92 13 -94.19921875 14.05859375 C-96.57861004 15.30248378 -96.99148343 16.55074548 -98 19 C-98.350625 19.598125 -98.70125 20.19625 -99.0625 20.8125 C-101.71360063 26.99840147 -100.82362922 31.8199232 -99 38 C-98.66065426 39.33181581 -98.32566512 40.66477301 -98 42 C-103.81109834 36.50301509 -106.51740774 32.49683037 -107.05078125 24.484375 C-106.93496899 18.81848274 -104.33485148 15.08565981 -100.6875 11 C-75.91431423 -12.24175247 -29.93521728 -7.77977398 0 0 Z " fill="#F18230" transform="translate(123,13)"/>
<path d="M0 0 C2.48559962 0.02368633 4.9701256 0.02052232 7.45581055 0.01391602 C16.64219646 0.03137607 25.38235785 0.56582899 34.42260742 2.33618164 C34.42260742 2.66618164 34.42260742 2.99618164 34.42260742 3.33618164 C33.20903564 3.31523437 31.99546387 3.29428711 30.74511719 3.27270508 C26.15849028 3.19923698 21.57191299 3.15400153 16.98486328 3.11645508 C15.01537272 3.09657904 13.04593922 3.0694685 11.07666016 3.03442383 C-7.92322158 2.7052539 -29.53180397 4.1712916 -44.57739258 17.33618164 C-47.60682717 21.2855979 -49.38153866 25.34190682 -49.57739258 30.33618164 C-49.06507759 33.70934471 -48.37070783 37.01868151 -47.57739258 40.33618164 C-52.51596588 35.78749571 -54.60534812 32.58208614 -54.95239258 25.89868164 C-54.76318907 19.53934161 -51.48651956 16.0450234 -47.07739258 11.77368164 C-34.03337868 0.87158146 -16.23600791 -0.1650359 0 0 Z " fill="#C4C4CD" transform="translate(78.577392578125,14.663818359375)"/>
<path d="M0 0 C5.26591612 0.31855542 9.56673515 1.84093249 14.375 3.9375 C15.00277344 4.20240234 15.63054687 4.46730469 16.27734375 4.74023438 C20.86934955 6.7386991 20.86934955 6.7386991 22 9 C21.44054687 8.82984375 20.88109375 8.6596875 20.3046875 8.484375 C12.89214065 6.24392676 5.44931312 4.11457447 -2 2 C-1.34 1.34 -0.68 0.68 0 0 Z " fill="#D3D3DA" transform="translate(119,9)"/>
<path d="M0 0 C2 1 2 1 2 1 Z " fill="#D6D6DC" transform="translate(114,18)"/>
</svg>
